<svg xmlns="http://www.w3.org/2000/svg" width="32" height="32" viewBox="0 0 32 32">
  <rect x="2" y="2" width="28" height="28" rx="3" ry="3" fill="#f0f0f0" stroke="#cccccc" stroke-width="1"/>
  <path d="M6 4 h20 a2 2 0 0 1 2 2 v20 a2 2 0 0 1 -2 2 h-20 a2 2 0 0 1 -2 -2 v-20 a2 2 0 0 1 2 -2 z" fill="#ffffff" stroke="#000000" stroke-width="1"/>
  <line x1="8" y1="10" x2="24" y2="10" stroke="#000000" stroke-width="2"/>
  <line x1="8" y1="14" x2="24" y2="14" stroke="#000000" stroke-width="2"/>
  <line x1="8" y1="18" x2="24" y2="18" stroke="#000000" stroke-width="2"/>
  <circle cx="16" cy="25" r="4" fill="#cccccc" stroke="#000000" stroke-width="1"/>
  <rect x="14" y="23" width="4" height="4" fill="#000000"/>
</svg>